<svg width="24" height="24" viewBox="0 0 24 24" fill="none" xmlns="http://www.w3.org/2000/svg">
<path d="M12 19.6669L11.7227 20.0829L12 20.2675L12.2773 20.0829L12 19.6669ZM12 19.6669L12.2773 20.0819H12.2783L12.2793 20.0809C12.2803 20.0803 12.2815 20.0791 12.2832 20.078C12.2867 20.0757 12.2916 20.0725 12.2979 20.0682C12.3104 20.0597 12.3293 20.0472 12.3525 20.0311C12.399 19.9989 12.4662 19.9516 12.5508 19.8905C12.7204 19.768 12.9612 19.5894 13.249 19.3602C13.8244 18.9021 14.5931 18.2396 15.3633 17.4266C16.8831 15.8223 18.5 13.534 18.5 10.9999C18.5 9.27597 17.8157 7.62218 16.5967 6.4032C15.3777 5.18421 13.7239 4.49988 12 4.49988C10.2761 4.49988 8.62231 5.18421 7.40332 6.4032C6.26051 7.54601 5.5875 9.07103 5.50781 10.6776L5.5 10.9999C5.5 13.534 7.11693 15.8223 8.63672 17.4266C9.40689 18.2396 10.1756 18.9021 10.751 19.3602C11.0388 19.5894 11.2796 19.768 11.4492 19.8905C11.5338 19.9516 11.601 19.9989 11.6475 20.0311C11.6707 20.0472 11.6896 20.0597 11.7021 20.0682C11.7084 20.0725 11.7133 20.0757 11.7168 20.078C11.7185 20.0791 11.7197 20.0803 11.7207 20.0809L11.7217 20.0819H11.7227L12 19.6669Z" stroke="#6B6B6B"/>
<path d="M12.001 8.49988C13.3817 8.49988 14.501 9.61917 14.501 10.9999C14.501 12.3806 13.3817 13.4999 12.001 13.4999C10.6203 13.4999 9.50098 12.3806 9.50098 10.9999C9.50098 9.61917 10.6203 8.49988 12.001 8.49988Z" stroke="#6B6B6B"/>
</svg>
